<svg width="40" height="40" viewBox="0 0 40 40" fill="none" xmlns="http://www.w3.org/2000/svg">
<path d="M19.1315 6.44154C19.1985 6.20883 19.5242 6.19791 19.6067 6.4256L22.7791 15.1791C22.816 15.2809 22.9143 15.3474 23.0225 15.3438L32.3279 15.0317C32.57 15.0235 32.681 15.3299 32.4899 15.4787L25.1452 21.2008C25.0597 21.2674 25.0269 21.3814 25.0638 21.4832L28.2361 30.2367C28.3187 30.4644 28.0616 30.6647 27.861 30.529L20.1493 25.3119C20.0596 25.2512 19.9411 25.2552 19.8556 25.3218L12.5109 31.0438C12.3198 31.1927 12.0499 31.0101 12.117 30.7774L14.6957 21.831C14.7257 21.7269 14.6852 21.6154 14.5955 21.5547L6.88385 16.3376C6.68326 16.2019 6.77351 15.8888 7.01556 15.8807L16.321 15.5686C16.4292 15.5649 16.5228 15.492 16.5528 15.3879L19.1315 6.44154Z" fill="#337168"/>
<path d="M15.2948 7.21041C15.2917 6.96825 15.6003 6.86368 15.7451 7.0578L21.3119 14.521C21.3766 14.6078 21.4899 14.6431 21.5925 14.6083L30.4106 11.6203C30.64 11.5426 30.8348 11.8038 30.6949 12.0015L25.3172 19.602C25.2547 19.6904 25.2561 19.8091 25.3209 19.8959L30.8876 27.3591C31.0324 27.5532 30.8442 27.8192 30.613 27.7473L21.7226 24.9814C21.6192 24.9493 21.5068 24.9873 21.4443 25.0758L16.0666 32.6763C15.9267 32.874 15.6155 32.7772 15.6125 32.535L15.4957 23.2251C15.4943 23.1168 15.4234 23.0217 15.32 22.9895L6.42964 20.2237C6.1984 20.1518 6.19431 19.8259 6.42368 19.7482L15.2418 16.7602C15.3444 16.7255 15.4129 16.6286 15.4116 16.5203L15.2948 7.21041Z" fill="#337168"/>
<path d="M11.4171 9.38566C11.335 9.15783 11.5924 8.958 11.7927 9.09403L19.4958 14.3238C19.5854 14.3847 19.704 14.3809 19.7895 14.3145L27.1437 8.60454C27.335 8.45602 27.6046 8.63905 27.5372 8.87165L24.9437 17.8138C24.9135 17.9178 24.9538 18.0294 25.0434 18.0902L32.7464 23.3201C32.9468 23.4561 32.856 23.769 32.614 23.7768L23.3081 24.0735C23.1998 24.0769 23.1061 24.1497 23.0759 24.2537L20.4824 33.1959C20.415 33.4285 20.0893 33.4388 20.0072 33.211L16.8493 24.4523C16.8125 24.3504 16.7144 24.2837 16.6061 24.2872L7.30023 24.5839C7.05817 24.5916 6.94765 24.2851 7.13894 24.1366L14.4932 18.4267C14.5787 18.3602 14.6118 18.2463 14.575 18.1444L11.4171 9.38566Z" fill="#337168"/>
<path d="M8.74224 12.2865C8.59727 12.0925 8.78525 11.8263 9.01656 11.898L17.9093 14.6562C18.0127 14.6882 18.1251 14.6501 18.1876 14.5616L23.5587 6.95643C23.6984 6.75861 24.0096 6.85514 24.0129 7.0973L24.1377 16.4071C24.1392 16.5154 24.2102 16.6104 24.3137 16.6425L33.2064 19.4006C33.4377 19.4724 33.4421 19.7982 33.2128 19.8761L24.3972 22.8718C24.2947 22.9066 24.2262 23.0035 24.2277 23.1118L24.3525 32.4216C24.3558 32.6638 24.0473 32.7686 23.9023 32.5746L18.3291 25.1162C18.2643 25.0295 18.151 24.9943 18.0484 25.0292L9.23286 28.0248C9.00356 28.1027 8.80851 27.8417 8.94822 27.6439L14.3194 20.0387C14.3818 19.9502 14.3802 19.8316 14.3154 19.7448L8.74224 12.2865Z" fill="#337168"/>
<path d="M14.6357 21.4333L17.9613 23.9999L25.6357 16.9999" stroke="currentColor" stroke-width="2"/>
</svg>
